<svg width="42" height="42" viewBox="0 0 42 42" fill="none" xmlns="http://www.w3.org/2000/svg">
<path d="M21 2.625C10.8527 2.625 2.625 10.8527 2.625 21C2.625 31.1473 10.8527 39.375 21 39.375C31.1473 39.375 39.375 31.1473 39.375 21C39.375 10.8527 31.1473 2.625 21 2.625ZM21 36.2578C12.5754 36.2578 5.74219 29.4246 5.74219 21C5.74219 12.5754 12.5754 5.74219 21 5.74219C29.4246 5.74219 36.2578 12.5754 36.2578 21C36.2578 29.4246 29.4246 36.2578 21 36.2578Z" fill="#2BD0D0"/>
<path d="M25.5773 12.9896C24.3469 11.9109 22.7227 11.3203 21 11.3203C19.2773 11.3203 17.6531 11.915 16.4227 12.9896C15.143 14.1094 14.4375 15.6146 14.4375 17.2266V17.5383C14.4375 17.7188 14.5852 17.8664 14.7656 17.8664H16.7344C16.9148 17.8664 17.0625 17.7188 17.0625 17.5383V17.2266C17.0625 15.4178 18.8303 13.9453 21 13.9453C23.1697 13.9453 24.9375 15.4178 24.9375 17.2266C24.9375 18.5021 24.0352 19.6711 22.6365 20.2084C21.767 20.5406 21.0287 21.123 20.4996 21.8859C19.9623 22.6652 19.6834 23.6004 19.6834 24.5479V25.4297C19.6834 25.6102 19.8311 25.7578 20.0115 25.7578H21.9803C22.1607 25.7578 22.3084 25.6102 22.3084 25.4297V24.4986C22.3105 24.1005 22.4326 23.7122 22.6587 23.3844C22.8847 23.0566 23.2043 22.8046 23.5758 22.6611C25.9957 21.7301 27.5584 19.5973 27.5584 17.2266C27.5625 15.6146 26.857 14.1094 25.5773 12.9896ZM19.3594 30.0234C19.3594 30.4586 19.5322 30.8759 19.8399 31.1835C20.1476 31.4912 20.5649 31.6641 21 31.6641C21.4351 31.6641 21.8524 31.4912 22.1601 31.1835C22.4678 30.8759 22.6406 30.4586 22.6406 30.0234C22.6406 29.5883 22.4678 29.171 22.1601 28.8633C21.8524 28.5557 21.4351 28.3828 21 28.3828C20.5649 28.3828 20.1476 28.5557 19.8399 28.8633C19.5322 29.171 19.3594 29.5883 19.3594 30.0234Z" fill="#2BD0D0"/>
</svg>
