<svg width="38" height="46" viewBox="0 0 38 46" fill="none" xmlns="http://www.w3.org/2000/svg">
<path d="M19.0559 30.4963C19.1676 30.5342 19.2422 30.6099 19.2794 30.7235C19.3167 30.8371 19.298 30.9507 19.2235 31.0643L14.5853 35.7778C13.8402 36.535 12.9833 37.1408 12.0147 37.5951C11.0461 38.0494 10.0588 38.3145 9.05294 38.3902C8.04705 38.4659 7.04117 38.3902 6.03529 38.163C5.02941 37.9359 4.11666 37.4626 3.29705 36.7433C2.29117 35.9482 1.50882 34.9828 0.949995 33.847C0.391171 32.7112 0.0931316 31.5754 0.0558767 30.4396C0.0186218 29.3038 0.186269 28.149 0.558818 26.9754C0.931367 25.8017 1.5647 24.7795 2.45882 23.9087L9.66764 16.5828C10.8225 15.4091 12.1637 14.5383 13.6912 13.9704C15.2186 13.4025 16.7833 13.2511 18.3853 13.5161C19.801 13.7433 20.9186 14.1597 21.7382 14.7655C22.5578 15.3712 23.2098 16.0717 23.6941 16.8667C23.7686 17.056 23.7593 17.198 23.6662 17.2926C23.573 17.3873 23.4706 17.4725 23.3588 17.5482C23.2471 17.6239 23.1167 17.7375 22.9676 17.8889L22.5765 18.2865C22.2039 18.7029 21.7569 18.9112 21.2353 18.9112C20.7137 18.9112 20.2387 18.6935 19.8103 18.2581C19.3819 17.8227 18.9069 17.4914 18.3853 17.2642C17.8637 17.0371 17.2863 16.9424 16.6529 16.9803C16.0196 17.0182 15.4608 17.1128 14.9765 17.2642C14.4922 17.4157 13.9892 17.7564 13.4676 18.2865L5.19705 26.6914C4.71274 27.1836 4.35882 27.7515 4.13529 28.3951C3.91176 29.0387 3.83725 29.6824 3.91176 30.326C3.98627 30.9696 4.17254 31.6132 4.47058 32.2568C4.76862 32.9005 5.25294 33.4116 5.92352 33.7902C6.8549 34.4338 7.86078 34.661 8.94117 34.4717C10.0216 34.2824 10.9343 33.828 11.6794 33.1087L15.2559 29.5309C15.3304 29.4173 15.4422 29.3984 15.5912 29.4741C16.7088 29.9663 17.8637 30.307 19.0559 30.4963ZM34.5912 1.76054C35.5971 2.55561 36.3794 3.50211 36.9382 4.60005C37.4971 5.69799 37.8137 6.8338 37.8882 8.00746C37.9627 9.18112 37.7951 10.3548 37.3853 11.5284C36.9755 12.7021 36.3235 13.7243 35.4294 14.5951L28.2206 21.921C27.0657 23.0947 25.7245 23.9466 24.1971 24.4766C22.6696 25.0066 21.0863 25.1581 19.4471 24.9309C18.0314 24.7416 16.9324 24.3252 16.15 23.6815C15.3676 23.0379 14.7157 22.3375 14.1941 21.5803C14.1196 21.4289 14.1382 21.2963 14.25 21.1828L15.2559 20.1605C15.6657 19.7819 16.1314 19.5926 16.6529 19.5926C17.1745 19.5926 17.6216 19.7819 17.9941 20.1605C18.4412 20.6149 18.9441 20.9556 19.5029 21.1828C20.0618 21.4099 20.6392 21.5235 21.2353 21.5235C21.8314 21.5235 22.4088 21.4099 22.9676 21.1828C23.5265 20.9556 24.0108 20.6149 24.4206 20.1605L32.6912 11.8124C33.1755 11.3202 33.5294 10.7334 33.7529 10.0519C33.9765 9.37042 34.051 8.70787 33.9765 8.06425C33.902 7.42063 33.6971 6.79594 33.3618 6.19017C33.0265 5.58441 32.5422 5.0733 31.9088 4.65684C31.0147 4.05108 30.0274 3.82392 28.9471 3.97536C27.8667 4.1268 26.9353 4.60005 26.1529 5.39511L22.6324 8.97289C22.5206 9.08647 22.4088 9.1054 22.2971 9.02968C21.2539 8.57536 20.099 8.21569 18.8323 7.95067C18.6833 7.95067 18.6088 7.87495 18.6088 7.72351C18.6088 7.57207 18.6274 7.47742 18.6647 7.43956L23.3029 2.72598C24.048 1.96877 24.9049 1.36301 25.8735 0.908693C26.8422 0.454372 27.8108 0.170421 28.7794 0.0568406C29.748 -0.0567396 30.7539 0.0379106 31.7971 0.340791C32.8402 0.643672 33.7716 1.11692 34.5912 1.76054Z" fill="#2BD0D0"/>
</svg>
